<svg fill="none" height="100%" width="100%" viewBox="0 0 800 584" xmlns:xlink="http://www.w3.org/1999/xlink" xmlns="http://www.w3.org/2000/svg"><defs><clipPath id="i0"><rect height="800" width="800" y="0" x="0" /></clipPath><g id="i1"><g transform="matrix(1,0,0,1,401.403,416.956)" id="i2"><g id="i3" transform="matrix(1,0,0,1,-1.145,1.603)"><rect ry="30" rx="30" height="172.85" width="578.312" y="-86.425" x="-289.156" stroke-width="6" stroke="#80a2e1" fill="#ffffff" /></g></g><g transform="matrix(1.05,0,0,1.05,409.559,396.92)" id="i4"><g id="i5" transform="matrix(1,0,0,1,-200.367,21.598)"><ellipse ry="47.032" rx="47.032" cy="0" cx="0" stroke-width="9" stroke="#86ba83" fill="#ffffff" /></g></g><g transform="matrix(1,0,0,1,409.414,391.21)" id="i6"><g id="i3" transform="matrix(1,0,0,1,55.377,1)"><rect ry="8" rx="8" height="22.038" width="352.758" y="-11.019" x="-176.379" stroke-width="0" stroke="#80a2e1" fill="#a0bce6" /></g></g><g transform="matrix(0.594,0,0,1,362.254,437.21)" id="i7"><g id="i3" transform="matrix(1,0,0,1,55.377,1)"><rect ry="20" rx="20" height="22.038" width="352.758" y="-11.019" x="-176.379" stroke-width="0" stroke="#80a2e1" fill="#a0bce6" /></g></g></g><g id="i8"><g transform="matrix(1,0,0,1,401.403,416.956)" id="i2"><g id="i3" transform="matrix(1,0,0,1,-1.403,0.876)"><rect ry="30" rx="30" height="172.85" width="578.312" y="-86.425" x="-289.156" stroke-width="6" stroke="#80a2e1" fill="#ffffff" /></g></g><g transform="matrix(1.05,0,0,1.05,409.559,396.92)" id="i4"><g id="i5" transform="matrix(1,0,0,1,-200.367,21.598)"><ellipse ry="47.032" rx="47.032" cy="0" cx="0" stroke-width="9" stroke="#86ba83" fill="#ffffff" /></g></g><g transform="matrix(1.05,0,0,1.05,409.559,396.92)" visibility="hidden" id="i9"><animate repeatCount="indefinite" begin="0s" calcMode="discrete" dur="1.792s" values="hidden; visible; visible" keyTimes="0; 0.372069; 1" attributeName="visibility" /><g id="i5" transform="matrix(1,0,0,1,-200.367,21.598)"><ellipse ry="47.032" rx="47.032" cy="0" cx="0" stroke-width="9" stroke="#64ab5f" fill="#64ab5f" /></g></g><g transform="matrix(1,0,0,1,409.414,391.21)" id="i6"><g id="i3" transform="matrix(1,0,0,1,55.377,1)"><rect ry="8" rx="8" height="22.038" width="352.758" y="-11.019" x="-176.379" stroke-width="0" stroke="#80a2e1" fill="#a0bce6" /></g></g><g transform="matrix(0.594,0,0,1,362.254,437.21)" id="i7"><g id="i3" transform="matrix(1,0,0,1,55.377,1)"><rect ry="20" rx="20" height="22.038" width="352.758" y="-11.019" x="-176.379" stroke-width="0" stroke="#80a2e1" fill="#a0bce6" /></g></g><g transform="matrix(0.9,0,0,0.9,383.35,403.1)" visibility="hidden" id="i10"><animate repeatCount="indefinite" begin="0s" calcMode="discrete" dur="1.792s" values="hidden; visible; visible" keyTimes="0; 0.209039; 1" attributeName="visibility" /><g id="i11"><path stroke-linejoin="round" stroke-linecap="round" stroke-width="13" stroke="#64ab5f" d="M-236,21"><set fill="freeze" dur="0.042s" begin="0.375s" to="M-236,21" attributeName="d" /><set fill="freeze" dur="0.042s" begin="0.4166666666666667s" to="M-236,21C-236,21,-235.561,21.462,-234.817,22.246" attributeName="d" /><set fill="freeze" dur="0.042s" begin="0.4583333333333333s" to="M-236,21C-236,21,-233.704,23.417,-230.708,26.57" attributeName="d" /><set fill="freeze" dur="0.042s" begin="0.5s" to="M-236,21C-236,21,-228.072,29.345,-222.458,35.255" attributeName="d" /><set fill="freeze" dur="0.042s" begin="0.5416666666666666s" to="M-236,21C-236,21,-217,41,-217,41C-217,41,-213.238,37.238,-208.022,32.022" attributeName="d" /><set fill="freeze" dur="0.042s" begin="0.5833333333333334s" to="M-236,21C-236,21,-217,41,-217,41C-217,41,-199.528,23.528,-187.679,11.679" attributeName="d" /><set fill="freeze" dur="0.042s" begin="0.625s" to="M-236,21C-236,21,-217,41,-217,41C-217,41,-177,1,-177,1" attributeName="d" /></path></g></g><g transform="matrix(0.9,0,0,0.9,383.35,403.1)" visibility="hidden" id="i12"><animate repeatCount="indefinite" begin="0s" calcMode="discrete" dur="1.792s" values="hidden; visible; visible" keyTimes="0; 0.372069; 1" attributeName="visibility" /><g stroke-dasharray="100 0" pathLength="100" id="i11"><path stroke-linejoin="round" stroke-linecap="round" stroke-width="13" stroke="#ffffff" d="M-236,21C-236,21,-217,41,-217,41C-217,41,-177,1,-177,1" /></g></g></g><g id="i13"><g transform="matrix(1,0,0,1,401.403,416.956)" id="i2"><g id="i3" transform="matrix(1,0,0,1,-0.985,1.532)"><rect ry="30" rx="30" height="172.85" width="578.312" y="-86.425" x="-289.156" stroke-width="6" stroke="#80a2e1" fill="#ffffff" /></g></g><g transform="matrix(1.05,0,0,1.05,409.559,396.92)" id="i4"><g id="i5" transform="matrix(1,0,0,1,-200.367,21.598)"><ellipse ry="47.032" rx="47.032" cy="0" cx="0" stroke-width="9" stroke="#86ba83" fill="#ffffff" /></g></g><g transform="matrix(1,0,0,1,409.414,391.21)" id="i6"><g id="i3" transform="matrix(1,0,0,1,55.377,1)"><rect ry="8" rx="8" height="22.038" width="352.758" y="-11.019" x="-176.379" stroke-width="0" stroke="#80a2e1" fill="#a0bce6" /></g></g><g transform="matrix(0.594,0,0,1,362.254,437.21)" id="i7"><g id="i3" transform="matrix(1,0,0,1,55.377,1)"><rect ry="20" rx="20" height="22.038" width="352.758" y="-11.019" x="-176.379" stroke-width="0" stroke="#80a2e1" fill="#a0bce6" /></g></g></g><g id="i14"><g transform="matrix(1,0,0,1,401.403,416.956)" id="i2"><g id="i3" transform="matrix(1,0,0,1,-0.239,1.228)"><rect ry="30" rx="30" height="172.85" width="578.312" y="-86.425" x="-289.156" stroke-width="6" stroke="#80a2e1" fill="#ffffff" /></g></g><g transform="matrix(1.05,0,0,1.05,409.559,396.92)" id="i4"><g id="i5" transform="matrix(1,0,0,1,-200.367,21.598)"><ellipse ry="47.032" rx="47.032" cy="0" cx="0" stroke-width="9" stroke="#64ab5f" fill="#64ab5f" /></g></g><g transform="matrix(1,0,0,1,409.414,391.21)" id="i6"><g id="i3" transform="matrix(1,0,0,1,55.377,1)"><rect ry="8" rx="8" height="22.038" width="352.758" y="-11.019" x="-176.379" stroke-width="0" stroke="#80a2e1" fill="#a0bce6" /></g></g><g transform="matrix(0.594,0,0,1,362.254,437.21)" id="i7"><g id="i3" transform="matrix(1,0,0,1,55.377,1)"><rect ry="20" rx="20" height="22.038" width="352.758" y="-11.019" x="-176.379" stroke-width="0" stroke="#80a2e1" fill="#a0bce6" /></g></g><g transform="matrix(0.9,0,0,0.9,383.35,403.1)" id="i10"><g stroke-dasharray="100 0" pathLength="100" id="i11"><path stroke-linejoin="round" stroke-linecap="round" stroke-width="13" stroke="#ffffff" d="M-236,21C-236,21,-217,41,-217,41C-217,41,-177,1,-177,1" /></g></g></g><filter id="i15"><feColorMatrix values="0 0 0 0 1 0 0 0 0 1 0 0 0 0 1 0 0 0 1 0" type="matrix" /></filter><mask height="20000" width="20000" y="-10000" x="-10000" maskContentUnits="userSpaceOnUse" maskUnits="userSpaceOnUse" style="mask-type: alpha" mask-type="alpha" id="i16"><g filter="url(#i15)" transform="matrix(1,0,0,1,400,404)"><g id="i3" transform="matrix(1,0,0,1,-0.5,74.641)"><rect height="129.281" width="457" y="-64.641" x="-228.5" stroke-width="0" stroke="#86ba83" fill="#535fff" /></g></g></mask><filter id="i17"><feColorMatrix values="0 0 0 0 1 0 0 0 0 1 0 0 0 0 1 0 0 0 1 0" type="matrix" /></filter><mask height="20000" width="20000" y="-10000" x="-10000" maskContentUnits="userSpaceOnUse" maskUnits="userSpaceOnUse" style="mask-type: alpha" mask-type="alpha" id="i18"><g filter="url(#i17)"><g transform="translate(400,400)"><animateTransform repeatCount="indefinite" type="translate" attributeName="transform" dur="1.792s" begin="0s" calcMode="spline" values="400 400; 400 400; 400 246; 400 246" keyTimes="0; 0.323139; 0.465116; 1" keySplines="0 0 1 1; 0.333 0 0.667 1; 0 0 1 1" fill="freeze" /><g transform="scale(1,1) translate(0,0)"><g id="i3" transform="matrix(1,0,0,1,2.223,-62.33)"><rect height="157.34" width="488.445" y="-78.67" x="-244.222" stroke-width="0" stroke="#86ba83" fill="#535fff" /></g></g></g></g></mask><filter id="i19"><feColorMatrix values="0 0 0 0 1 0 0 0 0 1 0 0 0 0 1 0 0 0 1 0" type="matrix" /></filter><mask height="20000" width="20000" y="-10000" x="-10000" maskContentUnits="userSpaceOnUse" maskUnits="userSpaceOnUse" style="mask-type: alpha" mask-type="alpha" id="i20"><g filter="url(#i19)"><g transform="translate(397.852,478.301)"><animateTransform repeatCount="indefinite" type="translate" attributeName="transform" dur="1.792s" begin="0s" calcMode="spline" values="397.852 478.301; 397.852 478.301; 397.852 376.931; 397.852 340.301; 397.852 340.301" keyTimes="0; 0.365977; 0.418604; 0.465116; 1" keySplines="0 0 1 1; 0.333 0 0.667 0.64; 0.333 0.88 0.667 1; 0 0 1 1" fill="freeze" /><g transform="scale(1,1)"><animateTransform repeatCount="indefinite" type="scale" attributeName="transform" dur="1.792s" begin="0s" calcMode="spline" values="1 1; 1 1; 1.19 1.19; 1.19 1.19" keyTimes="0; 0.365977; 0.465116; 1" keySplines="0 0 1 1; 0.333 0 0.667 1; 0 0 1 1" fill="freeze" /><g transform="translate(2.148,199.699)"><g id="i3" transform="matrix(1,0,0,1,-2.148,-199.699)"><rect height="124.602" width="439.703" y="-62.301" x="-219.851" stroke-width="0" stroke="#86ba83" fill="#1f71eb" /></g></g></g></g></g></mask><filter id="i21"><feColorMatrix values="0 0 0 0 1 0 0 0 0 1 0 0 0 0 1 0 0 0 1 0" type="matrix" /></filter><mask height="20000" width="20000" y="-10000" x="-10000" maskContentUnits="userSpaceOnUse" maskUnits="userSpaceOnUse" style="mask-type: alpha" mask-type="alpha" id="i22"><g filter="url(#i21)"><g transform="translate(400,241)"><animateTransform repeatCount="indefinite" type="translate" attributeName="transform" dur="1.792s" begin="0s" calcMode="spline" values="400 241; 400 241; 400 192; 400 192" keyTimes="0; 0.27907; 0.411269; 1" keySplines="0 0 1 1; 0.333 0 0.667 1; 0 0 1 1" fill="freeze" /><g transform="scale(0.59,0.59)"><animateTransform repeatCount="indefinite" type="scale" attributeName="transform" dur="1.792s" begin="0s" calcMode="spline" values="0.59 0.59; 0.59 0.59; 0.21 0.21; 0.21 0.21" keyTimes="0; 0.27907; 0.411269; 1" keySplines="0 0 1 1; 0.333 0 0.667 1; 0 0 1 1" fill="freeze" /><g transform="translate(-400,-400)"><g id="i23"><g transform="translate(396.359,331.018)"><animateTransform repeatCount="indefinite" type="translate" attributeName="transform" dur="1.792s" begin="0s" calcMode="spline" values="396.359 331.018; 396.359 331.018; 396.359 413.355; 396.359 375.018; 396.359 375.018" keyTimes="0; 0.312116; 0.367186; 0.411269; 1" keySplines="0 0 1 1; 0.333 0 0.667 1; 0.333 0 0.667 1; 0 0 1 1" fill="freeze" /><g transform="scale(1.695,1.695) translate(2.148,199.699)"><g id="i3" transform="matrix(1,0,0,1,-2.148,-199.699)"><rect height="124.602" width="439.703" y="-62.301" x="-219.851" stroke-width="0" stroke="#86ba83" fill="#1f71eb" /></g></g></g></g></g></g></g></g></mask></defs><g mask="url(#i16)" opacity="0" id="i24"><animate repeatCount="indefinite" attributeName="opacity" dur="1.792s" begin="0s" fill="freeze" values="0; 0; 1; 1" keyTimes="0; 0.418605; 0.511628; 1" keySplines="0 0 1 1; 0 0 1 1; 0 0 1 1" calcMode="spline" /><g transform="translate(400,554)"><animateTransform repeatCount="indefinite" type="translate" attributeName="transform" dur="1.792s" begin="0s" calcMode="spline" values="400 554; 400 554; 400 402; 400 402" keyTimes="0; 0.418605; 0.511628; 1" keySplines="0 0 1 1; 0 0 1 1; 0 0 1 1" fill="freeze" /><g transform="scale(0.48,0.48)"><animateTransform repeatCount="indefinite" type="scale" attributeName="transform" dur="1.792s" begin="0s" calcMode="spline" values="0.48 0.48; 0.48 0.48; 0.6 0.6; 0.6 0.6" keyTimes="0; 0.418605; 0.511628; 1" keySplines="0 0 1 1; 0 0 1 1; 0 0 1 1" fill="freeze" /><g transform="translate(-400,-400)"><g clip-path="url(#i0)"><g transform="matrix(1,0,0,1,401.403,416.956)"><g transform="matrix(1,0,0,1,-1.145,1.603)"><rect ry="30" rx="30" height="172.85" width="578.312" y="-86.425" x="-289.156" stroke-width="6" stroke="#80a2e1" fill="#ffffff" /></g></g><g transform="matrix(1.05,0,0,1.05,409.559,396.92)"><g transform="matrix(1,0,0,1,-200.367,21.598)"><ellipse ry="47.032" rx="47.032" cy="0" cx="0" stroke-width="9" stroke="#86ba83" fill="#ffffff" /></g></g><g transform="matrix(1,0,0,1,409.414,391.21)"><g transform="matrix(1,0,0,1,55.377,1)"><rect ry="8" rx="8" height="22.038" width="352.758" y="-11.019" x="-176.379" stroke-width="0" stroke="#80a2e1" fill="#a0bce6" /></g></g><g transform="matrix(0.594,0,0,1,362.254,437.21)"><g transform="matrix(1,0,0,1,55.377,1)"><rect ry="20" rx="20" height="22.038" width="352.758" y="-11.019" x="-176.379" stroke-width="0" stroke="#80a2e1" fill="#a0bce6" /></g></g></g></g></g></g></g><g display="none" transform="matrix(1,0,0,1,400,404)" id="i25"><g id="i3" transform="matrix(1,0,0,1,-0.5,74.641)"><rect height="129.281" width="457" y="-64.641" x="-228.5" stroke-width="0" stroke="#86ba83" fill="#535fff" /></g></g><g mask="url(#i18)" id="i26"><g transform="translate(400,326)"><animateTransform repeatCount="indefinite" type="translate" attributeName="transform" dur="1.792s" begin="0s" calcMode="spline" values="400 326; 400 326; 400 242; 400 242" keyTimes="0; 0.323139; 0.455328; 1" keySplines="0 0 1 1; 0.333 0 0.667 1; 0 0 1 1" fill="freeze" /><g transform="scale(0.78,0.78)"><animateTransform repeatCount="indefinite" type="scale" attributeName="transform" dur="1.792s" begin="0s" calcMode="spline" values="0.78 0.78; 0.78 0.78; 0.59 0.59; 0.59 0.59" keyTimes="0; 0.323139; 0.455328; 1" keySplines="0 0 1 1; 0.333 0 0.667 1; 0 0 1 1" fill="freeze" /><g transform="translate(-400,-400)"><g clip-path="url(#i0)"><g transform="matrix(1,0,0,1,401.403,416.956)"><g transform="matrix(1,0,0,1,-1.403,0.876)"><rect ry="30" rx="30" height="172.85" width="578.312" y="-86.425" x="-289.156" stroke-width="6" stroke="#80a2e1" fill="#ffffff" /></g></g><g transform="matrix(1.05,0,0,1.05,409.559,396.92)"><g transform="matrix(1,0,0,1,-200.367,21.598)"><ellipse ry="47.032" rx="47.032" cy="0" cx="0" stroke-width="9" stroke="#86ba83" fill="#ffffff" /></g></g><g transform="matrix(1.05,0,0,1.05,409.559,396.92)" visibility="hidden"><animate repeatCount="indefinite" begin="0s" calcMode="discrete" dur="1.792s" values="hidden; visible; visible" keyTimes="0; 0.372069; 1" attributeName="visibility" /><g transform="matrix(1,0,0,1,-200.367,21.598)"><ellipse ry="47.032" rx="47.032" cy="0" cx="0" stroke-width="9" stroke="#64ab5f" fill="#64ab5f" /></g></g><g transform="matrix(1,0,0,1,409.414,391.21)"><g transform="matrix(1,0,0,1,55.377,1)"><rect ry="8" rx="8" height="22.038" width="352.758" y="-11.019" x="-176.379" stroke-width="0" stroke="#80a2e1" fill="#a0bce6" /></g></g><g transform="matrix(0.594,0,0,1,362.254,437.21)"><g transform="matrix(1,0,0,1,55.377,1)"><rect ry="20" rx="20" height="22.038" width="352.758" y="-11.019" x="-176.379" stroke-width="0" stroke="#80a2e1" fill="#a0bce6" /></g></g><g transform="matrix(0.9,0,0,0.9,383.35,403.1)" visibility="hidden"><animate repeatCount="indefinite" begin="0s" calcMode="discrete" dur="1.792s" values="hidden; visible; visible" keyTimes="0; 0.209039; 1" attributeName="visibility" /><g><path stroke-linejoin="round" stroke-linecap="round" stroke-width="13" stroke="#64ab5f" d="M-236,21"><set fill="freeze" dur="0.042s" begin="0.375s" to="M-236,21" attributeName="d" /><set fill="freeze" dur="0.042s" begin="0.4166666666666667s" to="M-236,21C-236,21,-235.561,21.462,-234.817,22.246" attributeName="d" /><set fill="freeze" dur="0.042s" begin="0.4583333333333333s" to="M-236,21C-236,21,-233.704,23.417,-230.708,26.57" attributeName="d" /><set fill="freeze" dur="0.042s" begin="0.5s" to="M-236,21C-236,21,-228.072,29.345,-222.458,35.255" attributeName="d" /><set fill="freeze" dur="0.042s" begin="0.5416666666666666s" to="M-236,21C-236,21,-217,41,-217,41C-217,41,-213.238,37.238,-208.022,32.022" attributeName="d" /><set fill="freeze" dur="0.042s" begin="0.5833333333333334s" to="M-236,21C-236,21,-217,41,-217,41C-217,41,-199.528,23.528,-187.679,11.679" attributeName="d" /><set fill="freeze" dur="0.042s" begin="0.625s" to="M-236,21C-236,21,-217,41,-217,41C-217,41,-177,1,-177,1" attributeName="d" /></path></g></g><g transform="matrix(0.9,0,0,0.9,383.35,403.1)" visibility="hidden"><animate repeatCount="indefinite" begin="0s" calcMode="discrete" dur="1.792s" values="hidden; visible; visible" keyTimes="0; 0.372069; 1" attributeName="visibility" /><g stroke-dasharray="100 0" pathLength="100"><path stroke-linejoin="round" stroke-linecap="round" stroke-width="13" stroke="#ffffff" d="M-236,21C-236,21,-217,41,-217,41C-217,41,-177,1,-177,1" /></g></g></g></g></g></g></g><g display="none" id="i27"><g transform="translate(400,400)"><animateTransform repeatCount="indefinite" type="translate" attributeName="transform" dur="1.792s" begin="0s" calcMode="spline" values="400 400; 400 400; 400 246; 400 246" keyTimes="0; 0.323139; 0.465116; 1" keySplines="0 0 1 1; 0.333 0 0.667 1; 0 0 1 1" fill="freeze" /><g transform="scale(1,1) translate(0,0)"><g id="i3" transform="matrix(1,0,0,1,2.223,-62.33)"><rect height="157.34" width="488.445" y="-78.67" x="-244.222" stroke-width="0" stroke="#86ba83" fill="#535fff" /></g></g></g></g><g mask="url(#i20)" id="i28"><g transform="translate(400,401)"><animateTransform repeatCount="indefinite" type="translate" attributeName="transform" dur="1.792s" begin="0s" calcMode="spline" values="400 401; 400 401; 400 325; 400 325" keyTimes="0; 0.365977; 0.465116; 1" keySplines="0 0 1 1; 0.333 0 0.667 1; 0 0 1 1" fill="freeze" /><g transform="scale(0.61,0.61)"><animateTransform repeatCount="indefinite" type="scale" attributeName="transform" dur="1.792s" begin="0s" calcMode="spline" values="0.61 0.61; 0.61 0.61; 0.77 0.77; 0.77 0.77" keyTimes="0; 0.365977; 0.465116; 1" keySplines="0 0 1 1; 0.333 0 0.667 1; 0 0 1 1" fill="freeze" /><g transform="translate(-400,-400)"><g clip-path="url(#i0)"><g transform="matrix(1,0,0,1,401.403,416.956)"><g transform="matrix(1,0,0,1,-0.985,1.532)"><rect ry="30" rx="30" height="172.85" width="578.312" y="-86.425" x="-289.156" stroke-width="6" stroke="#80a2e1" fill="#ffffff" /></g></g><g transform="matrix(1.05,0,0,1.05,409.559,396.92)"><g transform="matrix(1,0,0,1,-200.367,21.598)"><ellipse ry="47.032" rx="47.032" cy="0" cx="0" stroke-width="9" stroke="#86ba83" fill="#ffffff" /></g></g><g transform="matrix(1,0,0,1,409.414,391.21)"><g transform="matrix(1,0,0,1,55.377,1)"><rect ry="8" rx="8" height="22.038" width="352.758" y="-11.019" x="-176.379" stroke-width="0" stroke="#80a2e1" fill="#a0bce6" /></g></g><g transform="matrix(0.594,0,0,1,362.254,437.21)"><g transform="matrix(1,0,0,1,55.377,1)"><rect ry="20" rx="20" height="22.038" width="352.758" y="-11.019" x="-176.379" stroke-width="0" stroke="#80a2e1" fill="#a0bce6" /></g></g></g></g></g></g></g><g display="none" id="i29"><g transform="translate(397.852,478.301)"><animateTransform repeatCount="indefinite" type="translate" attributeName="transform" dur="1.792s" begin="0s" calcMode="spline" values="397.852 478.301; 397.852 478.301; 397.852 376.931; 397.852 340.301; 397.852 340.301" keyTimes="0; 0.365977; 0.418604; 0.465116; 1" keySplines="0 0 1 1; 0.333 0 0.667 0.64; 0.333 0.88 0.667 1; 0 0 1 1" fill="freeze" /><g transform="scale(1,1)"><animateTransform repeatCount="indefinite" type="scale" attributeName="transform" dur="1.792s" begin="0s" calcMode="spline" values="1 1; 1 1; 1.19 1.19; 1.19 1.19" keyTimes="0; 0.365977; 0.465116; 1" keySplines="0 0 1 1; 0.333 0 0.667 1; 0 0 1 1" fill="freeze" /><g transform="translate(2.148,199.699)"><g id="i3" transform="matrix(1,0,0,1,-2.148,-199.699)"><rect height="124.602" width="439.703" y="-62.301" x="-219.851" stroke-width="0" stroke="#86ba83" fill="#1f71eb" /></g></g></g></g></g><g mask="url(#i22)" id="i2"><animate repeatCount="indefinite" attributeName="opacity" dur="1.792s" begin="0s" fill="freeze" values="1; 1; 0; 0" keyTimes="0; 0.27907; 0.411269; 1" keySplines="0 0 1 1; 0.333 0 0.667 1; 0 0 1 1" calcMode="spline" /><g transform="translate(400,241)"><animateTransform repeatCount="indefinite" type="translate" attributeName="transform" dur="1.792s" begin="0s" calcMode="spline" values="400 241; 400 241; 400 192; 400 192" keyTimes="0; 0.27907; 0.411269; 1" keySplines="0 0 1 1; 0.333 0 0.667 1; 0 0 1 1" fill="freeze" /><g transform="scale(0.59,0.59)"><animateTransform repeatCount="indefinite" type="scale" attributeName="transform" dur="1.792s" begin="0s" calcMode="spline" values="0.59 0.59; 0.59 0.59; 0.21 0.21; 0.21 0.21" keyTimes="0; 0.27907; 0.411269; 1" keySplines="0 0 1 1; 0.333 0 0.667 1; 0 0 1 1" fill="freeze" /><g transform="translate(-400,-400)"><g clip-path="url(#i0)"><g transform="matrix(1,0,0,1,401.403,416.956)"><g transform="matrix(1,0,0,1,-0.239,1.228)"><rect ry="30" rx="30" height="172.85" width="578.312" y="-86.425" x="-289.156" stroke-width="6" stroke="#80a2e1" fill="#ffffff" /></g></g><g transform="matrix(1.05,0,0,1.05,409.559,396.92)"><g transform="matrix(1,0,0,1,-200.367,21.598)"><ellipse ry="47.032" rx="47.032" cy="0" cx="0" stroke-width="9" stroke="#64ab5f" fill="#64ab5f" /></g></g><g transform="matrix(1,0,0,1,409.414,391.21)"><g transform="matrix(1,0,0,1,55.377,1)"><rect ry="8" rx="8" height="22.038" width="352.758" y="-11.019" x="-176.379" stroke-width="0" stroke="#80a2e1" fill="#a0bce6" /></g></g><g transform="matrix(0.594,0,0,1,362.254,437.21)"><g transform="matrix(1,0,0,1,55.377,1)"><rect ry="20" rx="20" height="22.038" width="352.758" y="-11.019" x="-176.379" stroke-width="0" stroke="#80a2e1" fill="#a0bce6" /></g></g><g transform="matrix(0.9,0,0,0.9,383.35,403.1)"><g stroke-dasharray="100 0" pathLength="100"><path stroke-linejoin="round" stroke-linecap="round" stroke-width="13" stroke="#ffffff" d="M-236,21C-236,21,-217,41,-217,41C-217,41,-177,1,-177,1" /></g></g></g></g></g></g></g><g display="none" id="i2"><g transform="translate(400,241)"><animateTransform repeatCount="indefinite" type="translate" attributeName="transform" dur="1.792s" begin="0s" calcMode="spline" values="400 241; 400 241; 400 192; 400 192" keyTimes="0; 0.27907; 0.411269; 1" keySplines="0 0 1 1; 0.333 0 0.667 1; 0 0 1 1" fill="freeze" /><g transform="scale(0.59,0.59)"><animateTransform repeatCount="indefinite" type="scale" attributeName="transform" dur="1.792s" begin="0s" calcMode="spline" values="0.59 0.59; 0.59 0.59; 0.21 0.21; 0.21 0.21" keyTimes="0; 0.27907; 0.411269; 1" keySplines="0 0 1 1; 0.333 0 0.667 1; 0 0 1 1" fill="freeze" /><g transform="translate(-400,-400)"><g id="i23"><g transform="translate(396.359,331.018)"><animateTransform repeatCount="indefinite" type="translate" attributeName="transform" dur="1.792s" begin="0s" calcMode="spline" values="396.359 331.018; 396.359 331.018; 396.359 413.355; 396.359 375.018; 396.359 375.018" keyTimes="0; 0.312116; 0.367186; 0.411269; 1" keySplines="0 0 1 1; 0.333 0 0.667 1; 0.333 0 0.667 1; 0 0 1 1" fill="freeze" /><g transform="scale(1.695,1.695) translate(2.148,199.699)"><g id="i3" transform="matrix(1,0,0,1,-2.148,-199.699)"><rect height="124.602" width="439.703" y="-62.301" x="-219.851" stroke-width="0" stroke="#86ba83" fill="#1f71eb" /></g></g></g></g></g></g></g></g></svg>